<?xml version="1.0" standalone="no"?>
<!DOCTYPE svg PUBLIC "-//W3C//DTD SVG 20010904//EN"
 "http://www.w3.org/TR/2001/REC-SVG-20010904/DTD/svg10.dtd">
<svg version="1.0" xmlns="http://www.w3.org/2000/svg"
 width="300.000000pt" height="275.000000pt" viewBox="0 0 300.000000 275.000000"
 preserveAspectRatio="xMidYMid meet">
<metadata>
Created by potrace 1.10, written by Peter Selinger 2001-2011
</metadata>
<g transform="translate(0.000000,275.000000) scale(0.100000,-0.100000)"
fill="#000000" stroke="none">
<path d="M1390 2543 c-116 -12 -241 -37 -334 -67 -407 -134 -705 -429 -804
-796 -21 -81 -25 -116 -25 -240 -1 -125 3 -158 25 -242 59 -217 189 -414 370
-561 192 -155 407 -246 688 -292 204 -33 495 -3 695 72 280 105 479 256 622
471 72 110 106 185 139 307 24 88 27 118 27 245 0 124 -4 160 -27 245 -62 236
-215 451 -434 608 -253 181 -631 282 -942 250z m348 -29 c246 -49 426 -121
582 -232 36 -26 106 -88 156 -137 142 -142 227 -286 275 -472 26 -99 28 -121
26 -264 -1 -94 -7 -162 -13 -170 -6 -8 -19 -45 -28 -84 -18 -74 -111 -258
-145 -289 -12 -11 -21 -23 -21 -29 0 -8 -119 -137 -155 -168 -32 -28 -130 -99
-136 -99 -4 0 -14 -6 -21 -13 -11 -11 -111 -62 -158 -81 -8 -3 -22 -10 -30
-15 -49 -29 -213 -79 -310 -93 -267 -39 -521 -17 -745 64 -53 20 -240 111
-243 120 -2 4 -8 8 -14 8 -11 0 -91 60 -96 72 -2 5 -9 8 -16 8 -20 0 -188 179
-230 245 -21 32 -52 86 -70 119 -49 93 -62 132 -94 281 -15 67 -5 288 17 383
29 124 108 288 186 381 81 98 253 252 290 260 6 2 16 8 24 14 25 21 85 52 218
113 31 14 216 63 313 82 69 14 361 11 438 -4z"/>
<path d="M1370 2484 c-295 -46 -470 -113 -657 -250 -216 -158 -363 -380 -408
-619 -40 -206 -3 -443 95 -615 14 -25 32 -57 39 -73 33 -64 190 -225 283 -289
102 -72 264 -158 294 -158 11 0 24 -4 29 -8 15 -12 71 -28 175 -51 207 -44
369 -44 580 1 127 26 280 77 330 108 8 6 36 21 61 35 26 13 53 30 60 37 8 7
34 26 59 42 105 68 237 217 308 346 92 169 124 324 110 530 -18 257 -175 536
-392 696 -34 24 -66 48 -72 53 -7 5 -36 22 -65 37 -30 15 -65 35 -79 44 -28
19 -178 75 -255 95 -45 12 -88 19 -180 31 -48 6 -287 12 -315 8z m412 -38
c220 -44 446 -154 593 -288 133 -120 176 -178 259 -343 61 -119 79 -208 80
-375 0 -130 -3 -155 -28 -240 -46 -159 -137 -311 -257 -431 -477 -477 -1352
-479 -1830 -5 -94 93 -137 152 -199 273 -74 145 -93 228 -94 398 0 144 9 199
54 322 83 225 292 448 533 570 92 46 281 107 377 122 41 6 86 13 100 15 53 9
339 -3 412 -18z"/>
<path d="M1405 2413 c-309 -40 -540 -151 -721 -346 -204 -220 -290 -501 -239
-778 36 -192 107 -334 242 -480 371 -402 1054 -456 1501 -119 135 101 220 204
296 358 142 284 121 618 -56 890 -60 91 -188 222 -277 282 -207 139 -525 222
-746 193z m179 -21 c5 -3 37 -7 70 -9 34 -2 68 -6 76 -9 8 -4 29 -8 45 -10 44
-5 110 -30 108 -42 -1 -5 6 -8 17 -5 37 10 287 -127 273 -150 -3 -6 -1 -7 5
-3 18 11 132 -97 201 -189 41 -55 117 -196 130 -243 6 -20 5 -34 -2 -42 -9 -8
-8 -10 4 -5 14 5 18 -4 24 -47 4 -29 9 -62 12 -73 8 -36 9 -219 2 -245 -4 -14
-10 -44 -13 -68 -3 -23 -10 -51 -16 -61 -5 -11 -10 -27 -10 -36 0 -10 -12 -40
-26 -69 -15 -28 -34 -64 -42 -81 -24 -46 -73 -116 -110 -157 -19 -21 -42 -48
-51 -60 l-15 -22 -6 24 c-4 19 4 33 38 69 51 52 103 130 147 219 17 34 35 59
40 55 4 -4 6 -3 2 2 -6 11 26 158 33 151 12 -11 7 246 -5 309 -19 97 -78 245
-115 290 -6 8 -8 20 -4 27 4 7 4 10 -1 6 -4 -4 -21 11 -37 33 -72 100 -229
233 -337 287 -40 20 -75 42 -78 48 -3 7 -10 11 -17 8 -7 -3 -26 0 -42 7 -34
13 -87 28 -129 35 -16 3 -45 10 -62 15 -38 12 -271 15 -353 5 -80 -10 -230
-54 -287 -85 -10 -5 -40 -20 -68 -33 -27 -12 -59 -32 -71 -43 -11 -11 -29 -26
-40 -33 -10 -7 -37 -24 -59 -39 -22 -14 -67 -57 -100 -95 -33 -37 -65 -66 -72
-64 -7 3 -10 -1 -7 -8 6 -17 -30 -79 -40 -68 -4 4 -6 2 -4 -3 5 -17 -34 -95
-45 -88 -6 4 -7 1 -2 -6 4 -7 2 -23 -4 -34 -16 -33 -51 -168 -51 -200 0 -15
-4 -26 -8 -23 -12 7 -2 -206 11 -244 3 -8 8 -29 11 -47 11 -65 68 -193 125
-279 53 -80 99 -130 216 -232 l37 -32 26 19 c15 10 56 50 92 87 105 112 563
594 564 594 1 0 142 -141 314 -313 l313 -314 -83 -55 c-350 -233 -781 -245
-1161 -33 -26 15 -47 24 -47 21 0 -11 47 -48 80 -63 19 -8 58 -26 86 -38 199
-92 522 -112 751 -46 17 5 34 7 37 3 3 -3 6 -1 6 5 0 6 12 14 28 18 35 8 181
74 192 86 3 3 26 20 52 38 27 17 48 36 48 41 0 15 26 12 39 -4 9 -11 8 -15 -5
-20 -9 -3 -20 -4 -25 0 -5 3 -9 -1 -9 -8 0 -15 -106 -91 -127 -91 -7 0 -13 -4
-13 -9 0 -5 -4 -6 -10 -3 -5 3 -10 2 -10 -3 0 -5 -15 -15 -32 -22 -18 -7 -48
-19 -66 -27 -19 -8 -62 -21 -95 -30 -34 -8 -71 -18 -82 -23 -11 -4 -68 -13
-127 -19 -128 -13 -303 1 -389 30 -30 10 -63 19 -72 19 -27 0 -243 100 -271
125 -6 6 -29 22 -51 37 -114 79 -295 297 -280 337 3 9 3 12 -1 8 -9 -8 -56 88
-52 106 1 7 -4 22 -11 35 -7 13 -10 30 -7 38 3 8 2 13 -3 10 -13 -9 -31 109
-31 204 0 86 18 200 33 211 5 3 7 12 6 20 -1 8 0 21 4 29 3 8 11 33 17 55 7
22 24 63 38 90 35 67 153 226 164 219 5 -3 7 -1 6 4 -3 11 71 78 148 134 61
43 200 115 234 119 14 2 27 6 30 9 13 13 119 42 130 35 7 -4 15 -2 19 4 4 6
45 13 95 15 48 2 89 6 92 9 7 6 107 6 118 -1z m82 -57 c99 -18 184 -40 229
-60 17 -8 53 -23 80 -35 28 -12 82 -42 120 -67 l70 -45 -75 -78 c-41 -42 -176
-184 -300 -314 l-225 -236 -333 333 c-300 300 -331 333 -315 345 10 7 63 35
118 62 196 95 430 130 631 95z m-444 -525 c181 -181 335 -330 342 -330 15 0
17 2 211 206 88 92 187 196 220 230 33 34 84 87 113 118 30 31 58 56 64 56 14
0 -5 -22 -109 -130 -45 -47 -99 -103 -120 -126 -21 -22 -105 -111 -188 -198
-82 -87 -154 -164 -158 -172 -5 -9 -1 -24 12 -42 11 -15 158 -164 326 -332
168 -167 305 -306 305 -307 0 -22 -76 48 -343 317 -174 176 -323 320 -331 320
-15 0 -84 -69 -375 -376 -201 -212 -303 -315 -308 -310 -7 7 18 36 137 160 58
60 142 148 188 195 45 47 82 89 82 93 0 4 7 8 15 8 8 0 15 4 15 10 0 5 43 53
96 107 52 54 102 111 110 126 l15 28 -100 100 c-54 54 -98 99 -96 99 3 0 -26
28 -63 63 -52 50 -322 321 -389 392 -14 15 -17 25 -7 25 3 0 154 -148 336
-330z m-281 223 c52 -54 202 -207 333 -340 l240 -242 -49 -53 c-50 -54 -395
-417 -539 -566 l-79 -83 -80 78 c-354 349 -356 873 -3 1226 42 42 78 77 80 77
2 0 46 -44 97 -97z m1330 -8 c150 -160 239 -378 239 -585 0 -200 -89 -423
-229 -575 l-43 -47 -307 312 c-168 172 -307 316 -309 321 -2 4 57 70 130 146
326 339 443 465 446 479 2 7 6 14 8 14 3 0 32 -29 65 -65z"/>
<path d="M1535 1075 c-28 -27 -32 -45 -10 -45 8 0 15 6 15 14 0 16 34 31 50
21 17 -11 11 -47 -9 -52 -26 -7 -36 -33 -13 -33 24 0 42 -19 42 -45 0 -43 -57
-64 -67 -25 -6 22 -33 28 -33 7 0 -34 65 -60 96 -39 35 23 40 94 7 106 -13 5
-12 8 1 22 23 23 20 50 -10 73 -34 27 -40 26 -69 -4z"/>
<path d="M1526 1998 c-9 -12 -16 -28 -16 -35 0 -21 27 -15 33 7 11 42 67 32
67 -12 0 -11 -22 -45 -50 -76 -68 -76 -66 -87 12 -85 77 2 93 23 18 23 l-52 0
46 51 c37 41 46 58 46 88 0 46 -14 61 -56 61 -23 0 -38 -7 -48 -22z"/>
<path d="M1022 1555 c-7 -14 -19 -28 -27 -31 -15 -6 -22 -34 -8 -34 3 0 15 8
26 17 18 17 19 16 15 -70 -2 -65 0 -87 10 -87 9 0 12 30 12 115 0 115 -7 137
-28 90z"/>
<path d="M2055 1533 c-25 -43 -45 -81 -45 -85 0 -5 20 -8 45 -8 43 0 45 -1 45
-30 0 -16 5 -30 10 -30 6 0 10 14 10 30 0 20 5 30 15 30 8 0 15 5 15 10 0 6
-7 10 -15 10 -12 0 -15 15 -15 75 0 42 -4 75 -10 75 -5 0 -30 -35 -55 -77z
m45 -23 c0 -49 -1 -50 -30 -50 -16 0 -30 2 -30 4 0 7 52 96 56 96 2 0 4 -22 4
-50z"/>
</g>
</svg>
