<?xml version="1.0" encoding="UTF-8" standalone="no"?>
<!-- Created with Inkscape (http://www.inkscape.org/) -->

<svg
   xmlns:osb="http://www.openswatchbook.org/uri/2009/osb"
   xmlns:dc="http://purl.org/dc/elements/1.1/"
   xmlns:cc="http://creativecommons.org/ns#"
   xmlns:rdf="http://www.w3.org/1999/02/22-rdf-syntax-ns#"
   xmlns:svg="http://www.w3.org/2000/svg"
   xmlns="http://www.w3.org/2000/svg"
   xmlns:xlink="http://www.w3.org/1999/xlink"
   xmlns:sodipodi="http://sodipodi.sourceforge.net/DTD/sodipodi-0.dtd"
   xmlns:inkscape="http://www.inkscape.org/namespaces/inkscape"
   width="210mm"
   height="297mm"
   viewBox="0 0 210 297"
   version="1.1"
   id="svg8"
   inkscape:version="0.92.4 (5da689c313, 2019-01-14)"
   sodipodi:docname="sword.svg"
   inkscape:export-filename="C:\Users\demetri\Pictures\ox1234\sword.png"
   inkscape:export-xdpi="96"
   inkscape:export-ydpi="96">
  <defs
     id="defs2">
    <linearGradient
       id="linearGradient2635"
       osb:paint="solid">
      <stop
         style="stop-color:#008080;stop-opacity:1;"
         offset="0"
         id="stop2633" />
    </linearGradient>
    <linearGradient
       id="linearGradient2627"
       osb:paint="solid">
      <stop
         style="stop-color:#008080;stop-opacity:1;"
         offset="0"
         id="stop2625" />
    </linearGradient>
    <linearGradient
       inkscape:collect="always"
       id="linearGradient1155">
      <stop
         style="stop-color:#000000;stop-opacity:1;"
         offset="0"
         id="stop1151" />
      <stop
         style="stop-color:#000000;stop-opacity:0;"
         offset="1"
         id="stop1153" />
    </linearGradient>
    <marker
       inkscape:stockid="DotL"
       orient="auto"
       refY="0.0"
       refX="0.0"
       id="DotL"
       style="overflow:visible"
       inkscape:isstock="true">
      <path
         id="path2876"
         d="M -2.5,-1.0 C -2.5,1.7600000 -4.7400000,4.0 -7.5,4.0 C -10.260000,4.0 -12.5,1.7600000 -12.5,-1.0 C -12.5,-3.7600000 -10.260000,-6.0 -7.5,-6.0 C -4.7400000,-6.0 -2.5,-3.7600000 -2.5,-1.0 z "
         style="fill-rule:evenodd;stroke:#000000;stroke-width:1pt;stroke-opacity:1;fill:#000000;fill-opacity:1"
         transform="scale(0.8) translate(7.4, 1)" />
    </marker>
    <linearGradient
       id="linearGradient2741"
       osb:paint="solid">
      <stop
         style="stop-color:#000000;stop-opacity:1;"
         offset="0"
         id="stop2739" />
    </linearGradient>
    <linearGradient
       id="linearGradient2721"
       osb:paint="solid">
      <stop
         style="stop-color:#000000;stop-opacity:1;"
         offset="0"
         id="stop2719" />
    </linearGradient>
    <linearGradient
       id="linearGradient2713"
       osb:paint="solid">
      <stop
         style="stop-color:#000000;stop-opacity:1;"
         offset="0"
         id="stop2711" />
    </linearGradient>
    <linearGradient
       inkscape:collect="always"
       xlink:href="#linearGradient1155"
       id="linearGradient3346"
       gradientUnits="userSpaceOnUse"
       x1="293.13867"
       y1="1052.1074"
       x2="372.07617"
       y2="1052.1074"
       gradientTransform="matrix(0.22996019,0,0,0.22996019,4.0783989,58.32866)" />
  </defs>
  <sodipodi:namedview
     id="base"
     pagecolor="#ffffff"
     bordercolor="#666666"
     borderopacity="1.0"
     inkscape:pageopacity="0.0"
     inkscape:pageshadow="2"
     inkscape:zoom="1.1576234"
     inkscape:cx="399.07802"
     inkscape:cy="525.38518"
     inkscape:document-units="mm"
     inkscape:current-layer="g399"
     showgrid="false"
     inkscape:window-width="1920"
     inkscape:window-height="1017"
     inkscape:window-x="-8"
     inkscape:window-y="-8"
     inkscape:window-maximized="1" />
  <metadata
     id="metadata5">
    <rdf:RDF>
      <cc:Work
         rdf:about="">
        <dc:format>image/svg+xml</dc:format>
        <dc:type
           rdf:resource="http://purl.org/dc/dcmitype/StillImage" />
        <dc:title />
      </cc:Work>
    </rdf:RDF>
  </metadata>
  <g
     inkscape:label="Layer 1"
     inkscape:groupmode="layer"
     id="layer1">
    <g
       id="g399">
      <path
         style="opacity:1;fill:#008000;fill-opacity:1;fill-rule:evenodd;stroke:#000000;stroke-width:3.1299212;stroke-miterlimit:4;stroke-dasharray:none;stroke-opacity:1;paint-order:normal"
         d=""
         id="path3267"
         inkscape:connector-curvature="0"
         transform="scale(0.26458333)" />
      <path
         style="opacity:1;fill:#008000;fill-opacity:1;fill-rule:evenodd;stroke:#000000;stroke-width:3.1299212;stroke-miterlimit:4;stroke-dasharray:none;stroke-opacity:1;paint-order:normal"
         d=""
         id="path3273"
         inkscape:connector-curvature="0"
         transform="scale(0.26458333)" />
      <path
         style="opacity:1;fill:#008000;fill-opacity:1;fill-rule:evenodd;stroke:#000000;stroke-width:1.69758427;stroke-miterlimit:4;stroke-dasharray:none;stroke-opacity:1;paint-order:normal"
         d=""
         id="path3277"
         inkscape:connector-curvature="0"
         transform="scale(0.26458333)" />
      <flowRoot
         xml:space="preserve"
         id="flowRoot3283"
         style="fill:black;fill-opacity:1;stroke:none;font-family:sans-serif;font-style:normal;font-weight:normal;font-size:40px;line-height:1.25;letter-spacing:0px;word-spacing:0px"><flowRegion
           id="flowRegion3285"><rect
             id="rect3287"
             width="247.22223"
             height="194.44444"
             x="236.11111"
             y="100.29746" /></flowRegion><flowPara
           id="flowPara3289" /></flowRoot>      <path
         style="opacity:1;fill:#000000;fill-opacity:0;fill-rule:evenodd;stroke:#000000;stroke-width:2.38546944;stroke-miterlimit:4;stroke-dasharray:none;stroke-opacity:1;paint-order:normal"
         d=""
         id="path3598"
         inkscape:connector-curvature="0"
         transform="scale(0.26458333)" />
      <path
         style="opacity:1;fill:#008000;fill-opacity:0;fill-rule:evenodd;stroke:#000000;stroke-width:0.4218736;stroke-miterlimit:4;stroke-dasharray:none;stroke-opacity:1;paint-order:normal"
         d=""
         id="path3656"
         inkscape:connector-curvature="0"
         transform="scale(0.26458333)" />
      <path
         style="opacity:1;fill:#008000;fill-opacity:0;fill-rule:evenodd;stroke:#000000;stroke-width:0.4218736;stroke-miterlimit:4;stroke-dasharray:none;stroke-opacity:1;paint-order:normal"
         d=""
         id="path3658"
         inkscape:connector-curvature="0"
         transform="scale(0.26458333)" />
      <path
         style="opacity:1;fill:#008000;fill-opacity:0;fill-rule:evenodd;stroke:#000000;stroke-width:0.4218736;stroke-miterlimit:4;stroke-dasharray:none;stroke-opacity:1;paint-order:normal"
         d=""
         id="path3660"
         inkscape:connector-curvature="0"
         transform="scale(0.26458333)" />
      <path
         style="opacity:1;fill:#008000;fill-opacity:0;fill-rule:evenodd;stroke:#000000;stroke-width:0.4218736;stroke-miterlimit:4;stroke-dasharray:none;stroke-opacity:1;paint-order:normal"
         d=""
         id="path3662"
         inkscape:connector-curvature="0"
         transform="scale(0.26458333)" />
      <path
         style="opacity:1;fill:#008000;fill-opacity:0;fill-rule:evenodd;stroke:#000000;stroke-width:0.4218736;stroke-miterlimit:4;stroke-dasharray:none;stroke-opacity:1;paint-order:normal"
         d=""
         id="path3664"
         inkscape:connector-curvature="0"
         transform="scale(0.26458333)" />
      <path
         style="opacity:1;fill:#008000;fill-opacity:0;fill-rule:evenodd;stroke:#000000;stroke-width:0.4218736;stroke-miterlimit:4;stroke-dasharray:none;stroke-opacity:1;paint-order:normal"
         d=""
         id="path3666"
         inkscape:connector-curvature="0"
         transform="scale(0.26458333)" />
      <path
         style="opacity:1;fill:#008000;fill-opacity:0;fill-rule:evenodd;stroke:#000000;stroke-width:0.4218736;stroke-miterlimit:4;stroke-dasharray:none;stroke-opacity:1;paint-order:normal"
         d=""
         id="path3668"
         inkscape:connector-curvature="0"
         transform="scale(0.26458333)" />
      <flowRoot
         xml:space="preserve"
         id="flowRoot944"
         style="fill:black;fill-opacity:1;stroke:none;font-family:sans-serif;font-style:normal;font-weight:normal;font-size:40px;line-height:1.25;letter-spacing:0px;word-spacing:0px;stroke-width:0;stroke-miterlimit:4;stroke-dasharray:none"><flowRegion
           id="flowRegion946"
           style="stroke-width:0;stroke-miterlimit:4;stroke-dasharray:none"><rect
             id="rect948"
             width="199.45311"
             height="109.99252"
             x="297.7131"
             y="977.32953"
             style="stroke-width:0;stroke-miterlimit:4;stroke-dasharray:none" /></flowRegion><flowPara
           id="flowPara950"></flowPara></flowRoot>      <flowRoot
         xml:space="preserve"
         id="flowRoot952"
         style="font-style:normal;font-weight:normal;font-size:192.00000242px;line-height:1.25;font-family:'Lucida Bright';letter-spacing:0px;word-spacing:0px;fill:#000000;fill-opacity:1;stroke:none;-inkscape-font-specification:'Lucida Bright';font-stretch:normal;font-variant:normal;"
         transform="scale(0.26458333)"><flowRegion
           id="flowRegion954"
           style="-inkscape-font-specification:'Lucida Bright';font-family:'Lucida Bright';font-weight:normal;font-style:normal;font-stretch:normal;font-variant:normal;font-size:192.00000242px;"><rect
             id="rect956"
             width="195.05341"
             height="143.72356"
             x="-206.78593"
             y="488.96277"
             style="-inkscape-font-specification:'Lucida Bright';font-family:'Lucida Bright';font-weight:normal;font-style:normal;font-stretch:normal;font-variant:normal;font-size:192.00000242px;" /></flowRegion><flowPara
           id="flowPara958" /></flowRoot>      <text
         xml:space="preserve"
         style="font-style:normal;font-weight:normal;font-size:50.8px;line-height:1.25;font-family:sans-serif;letter-spacing:0px;word-spacing:0px;fill:#000000;fill-opacity:1;stroke:none;stroke-width:0.26458332;"
         x="-39.158333"
         y="149.89168"
         id="text962"><tspan
           sodipodi:role="line"
           id="tspan960"
           x="-39.158333"
           y="189.15736"
           style="font-size:50.8px;stroke-width:0.26458332;" /></text>
      <flowRoot
         xml:space="preserve"
         id="flowRoot964"
         style="font-style:normal;font-variant:normal;font-weight:normal;font-stretch:normal;font-size:192px;line-height:1.25;font-family:'Kunstler Script';-inkscape-font-specification:'Kunstler Script';letter-spacing:0px;word-spacing:0px;fill:#000000;fill-opacity:1;stroke:none"
         transform="scale(0.26458333)"><flowRegion
           id="flowRegion966"
           style="font-style:normal;font-variant:normal;font-weight:normal;font-stretch:normal;font-size:192px;font-family:'Kunstler Script';-inkscape-font-specification:'Kunstler Script'"><rect
             id="rect968"
             width="134"
             height="243.99997"
             x="-122"
             y="456.51968"
             style="font-style:normal;font-variant:normal;font-weight:normal;font-stretch:normal;font-size:192px;font-family:'Kunstler Script';-inkscape-font-specification:'Kunstler Script'" /></flowRegion><flowPara
           id="flowPara970"
           style="font-size:341.33334351px">33</flowPara></flowRoot>      <text
         xml:space="preserve"
         style="font-style:normal;font-weight:normal;font-size:10.58333302px;line-height:1.25;font-family:sans-serif;letter-spacing:0px;word-spacing:0px;fill:#000000;fill-opacity:1;stroke:none;stroke-width:0.26458332"
         x="-23.8125"
         y="140.89584"
         id="text974"><tspan
           sodipodi:role="line"
           id="tspan972"
           x="-23.8125"
           y="150.55135"
           style="stroke-width:0.26458332"></tspan></text>
      <flowRoot
         xml:space="preserve"
         id="flowRoot984"
         style="fill:black;fill-opacity:1;stroke:none;font-family:Vivaldi;font-style:normal;font-weight:normal;font-size:192px;line-height:1.25;letter-spacing:0px;word-spacing:0px;-inkscape-font-specification:Vivaldi;font-stretch:normal;font-variant:normal;"><flowRegion
           id="flowRegion986"
           style="-inkscape-font-specification:Vivaldi;font-family:Vivaldi;font-weight:normal;font-style:normal;font-stretch:normal;font-variant:normal;font-size:192px;"><rect
             id="rect988"
             width="168"
             height="144"
             x="-168"
             y="458.51968"
             style="-inkscape-font-specification:Vivaldi;font-family:Vivaldi;font-weight:normal;font-style:normal;font-stretch:normal;font-variant:normal;font-size:192px;" /></flowRegion><flowPara
           id="flowPara990"></flowPara></flowRoot>      <flowRoot
         xml:space="preserve"
         id="flowRoot1008"
         style="font-style:normal;font-variant:normal;font-weight:normal;font-stretch:normal;font-size:192.00000242px;line-height:1.25;font-family:'Californian FB';-inkscape-font-specification:'Californian FB';letter-spacing:0px;word-spacing:0px;fill:#000000;fill-opacity:1;stroke:none;"
         transform="scale(0.26458333)"><flowRegion
           id="flowRegion1010"
           style="font-size:192.00000242px;"><rect
             id="rect1012"
             width="88"
             height="120"
             x="-156"
             y="452.51968"
             style="font-size:192.00000242px;" /></flowRegion><flowPara
           id="flowPara1014">3</flowPara></flowRoot>      <ellipse
         style="opacity:1;fill:none;fill-opacity:1;fill-rule:evenodd;stroke:#000000;stroke-width:0.3207266;stroke-miterlimit:4;stroke-dasharray:none;stroke-opacity:1;paint-order:normal"
         id="path460"
         cx="104.99921"
         cy="158.3356"
         rx="100.71879"
         ry="95.029053" />
      <ellipse
         style="opacity:1;fill:none;fill-opacity:1;fill-rule:evenodd;stroke:#000000;stroke-width:0.32724616;stroke-miterlimit:4;stroke-dasharray:none;stroke-opacity:1;paint-order:normal"
         id="path460-5"
         cx="104.44661"
         cy="157.99184"
         rx="102.99567"
         ry="96.74469" />
      <path
         style="opacity:1;fill:#008000;fill-opacity:1;fill-rule:evenodd;stroke:#000000;stroke-width:0.49179211;stroke-miterlimit:4;stroke-dasharray:none;stroke-opacity:1;paint-order:normal"
         d="m 96.224573,253.99247 c -6.101169,-0.52966 -9.9666,-1.08417 -9.271295,-1.33 0.346523,-0.1225 2.505322,0.0228 4.797323,0.3228 6.187829,0.81003 19.992409,0.67788 26.577949,-0.25444 38.70577,-5.4796 70.43267,-31.72682 81.41217,-67.35114 8.69652,-28.21699 3.28606,-58.74453 -14.6676,-82.75893 -3.79205,-5.072178 -12.18535,-13.681864 -17.31138,-17.757697 -10.54949,-8.388148 -23.67446,-14.943846 -36.68436,-18.323206 -10.7946,-2.80393 -14.00963,-3.184815 -26.93173,-3.190602 -12.64182,-0.0057 -15.977577,0.366497 -26.07823,2.909459 -13.018178,3.277482 -27.086062,10.223409 -37.549595,18.539867 -1.830155,1.454614 -3.818454,2.63534 -4.437814,2.63534 -0.897287,0 -0.439978,-0.552354 2.282551,-2.756943 20.621864,-16.698721 48.907866,-25.071662 76.179478,-22.54989 47.37665,4.380857 85.22773,38.857782 91.58711,83.422762 1.33534,9.3578 0.79639,22.81873 -1.28694,32.14193 -5.75385,25.74964 -22.87588,48.61763 -46.75083,62.43994 -18.20201,10.53798 -41.08556,15.66485 -61.866807,13.86075 z"
         id="path3269"
         inkscape:connector-curvature="0" />
      <rect
         style="opacity:0;fill:#1a1a1a;stroke-width:0.15816648"
         id="rect106"
         width="34.716255"
         height="12.016676"
         x="112.45669"
         y="159.73276" />
      <path
         style="opacity:1;fill:#008000;fill-opacity:1;fill-rule:evenodd;stroke:#000000;stroke-width:0.49504867;stroke-miterlimit:4;stroke-dasharray:none;stroke-opacity:1;paint-order:normal"
         d="M 57.620503,243.35169 C 12.649145,221.40102 -8.4445258,173.37979 6.9948234,128.09875 8.9572605,122.34325 14.123155,112.15756 17.862592,106.67058 23.0535,99.053809 33.571181,87.585539 33.571181,89.542248 c 0,0.46981 -1.931968,2.992705 -4.293262,5.606433 C 15.067824,110.8779 7.386532,126.98376 4.7370819,146.60502 c -3.84536541,28.47795 6.3010951,57.16172 27.5753221,77.95471 7.89167,7.71316 15.422364,13.00807 26.072344,18.33173 3.59659,1.79785 6.20064,3.2737 5.786782,3.27967 -0.413857,0.006 -3.36182,-1.26279 -6.551027,-2.81944 z"
         id="path3275"
         inkscape:connector-curvature="0" />
      <path
         style="opacity:1;fill:#008000;fill-opacity:1;fill-rule:evenodd;stroke:#000000;stroke-width:0.15380153;stroke-miterlimit:4;stroke-dasharray:none;stroke-opacity:1;paint-order:normal"
         d="m 67.021151,247.95925 c -0.428331,-0.16859 -0.814061,-0.34466 -0.85718,-0.3913 -0.134027,-0.14495 0.706196,0.091 1.421453,0.39909 0.905451,0.39007 0.429954,0.38349 -0.564273,-0.008 z"
         id="path3279"
         inkscape:connector-curvature="0" />
      <path
         style="opacity:1;fill:#008000;fill-opacity:1;fill-rule:evenodd;stroke:#000000;stroke-width:0.05093748;stroke-miterlimit:4;stroke-dasharray:none;stroke-opacity:1;paint-order:normal"
         d="m 86.690715,252.94343 c -6.49808,-1.14787 -12.803364,-2.802 -18.333839,-4.8097 -0.46287,-0.16803 -1.108697,-0.40171 -1.435169,-0.5193 -0.660478,-0.23787 -3.057048,-1.17496 -3.092192,-1.20908 -0.01234,-0.012 0.08329,-0.008 0.212497,0.01 0.198836,0.0264 0.252422,0.0143 0.348803,-0.0793 0.258605,-0.25106 0.03962,-0.48423 -1.046637,-1.11444 -0.392057,-0.22745 -0.692967,-0.41997 -0.668689,-0.42783 0.02428,-0.008 0.32572,0.1084 0.669869,0.25837 2.321618,1.01164 5.591367,2.24499 8.376656,3.15964 5.263446,1.72845 10.24729,2.9556 15.871985,3.9081 l 1.290406,0.21853 -0.541971,0.005 c -0.578492,0.005 -0.87879,0.0605 -0.981572,0.18068 -0.09181,0.10739 -0.07825,0.31237 0.02822,0.42658 0.08897,0.0954 0.08795,0.0984 -0.03226,0.0938 -0.06827,-0.003 -0.368023,-0.0478 -0.666108,-0.10045 z"
         id="path3281"
         inkscape:connector-curvature="0" />
      <g
         id="g362-0-3"
         transform="matrix(1.1637214,-0.59493237,0.62410622,0.81213606,-45.675408,126.62472)">
        <g
           id="g347-7-4">
          <rect
             inkscape:transform-center-y="18.248832"
             inkscape:transform-center-x="-2.2202458"
             transform="matrix(0.00810228,0.99996718,-0.99998921,0.00464563,0,0)"
             y="-81.77739"
             x="133.01794"
             height="22.678392"
             width="33.200317"
             id="rect10-9-9-2-3"
             style="fill:#003380;stroke-width:0.12963976" />
        </g>
        <path
           style="opacity:0;fill:#002b11;stroke-width:0.26458332"
           id="path98-9-6"
           d="m 62.355555,148.16243 c 0.624678,0.25383 1.22021,0.57507 1.815121,0.892 0.563401,0.27288 1.140613,0.51663 1.711822,0.77297 0.442103,0.21026 0.855438,0.47535 1.246225,0.76915 0.351229,0.24896 0.68626,0.51921 1.035063,0.77104 0.34812,0.17315 0.739193,0.22788 1.113104,0.32246 0.524233,0.10442 1.051381,0.1961 1.57932,0.281 0.43557,0.0683 0.87686,0.0811 1.316857,0.0885 0.481124,0.006 0.962295,0.004 1.443443,0.003 0.4769,-0.002 0.953807,-0.002 1.43071,-10e-4 0.416663,-5.2e-4 0.833326,-0.002 1.24999,-0.003 0.333565,-2.7e-4 0.667136,-0.001 1.000701,1e-5 0.396971,-5.3e-4 0.793938,0.002 1.190906,0.002 0.455443,6e-5 0.910883,-9e-5 1.366327,5.3e-4 0.490863,0.0265 0.946978,-0.13087 1.353145,-0.39644 -0.61192,0.35195 -1.222833,0.70565 -1.835756,1.05585 -0.06416,0.0367 0.126545,-0.0763 0.189394,-0.1152 0.18769,-0.11606 0.363643,-0.25556 0.55345,-0.36709 0.728737,-0.42819 1.462545,-0.8477 2.193817,-1.27155 0.234106,-0.091 0.116538,-0.0522 0.352393,-0.11748 0,0 -1.868371,1.45339 -1.868371,1.45339 v 0 c -0.216072,0.0885 -0.10845,0.0388 -0.322437,0.15 0.614809,-0.35804 1.228034,-0.71881 1.844429,-1.07411 0.06215,-0.0358 -0.12241,0.075 -0.181547,0.11558 -0.339526,0.23315 -0.02426,0.0387 -0.369504,0.2599 -0.776695,0.49764 -1.696053,0.7677 -2.39069,1.3938 -0.450826,0.2182 -0.922285,0.33285 -1.426668,0.29984 -0.455972,5.3e-4 -0.911944,5.3e-4 -1.367917,5.3e-4 -0.398597,2.7e-4 -0.797192,0.002 -1.195789,0.002 -0.333563,0.001 -0.667131,2.7e-4 -1.000694,-1e-5 -0.414137,-7.9e-4 -0.82827,-0.002 -1.242407,-0.003 -0.476829,7.9e-4 -0.953656,0.002 -1.430485,0.001 -0.483529,10e-4 -0.967116,0.002 -1.450594,-0.005 -0.445993,-0.0136 -0.89263,-0.0381 -1.332368,-0.11898 -0.530262,-0.0936 -1.062969,-0.17559 -1.588325,-0.29423 -0.403704,-0.0912 -0.822934,-0.16342 -1.173877,-0.39689 -0.341085,-0.26137 -0.680789,-0.52462 -1.031896,-0.77263 -0.381093,-0.27889 -0.777523,-0.53797 -1.209437,-0.73221 -0.573913,-0.25775 -1.153184,-0.50619 -1.714434,-0.79 -0.588436,-0.3122 -1.17643,-0.63915 -1.811314,-0.84729 0,0 1.958293,-1.32869 1.958293,-1.32869 z"
           inkscape:connector-curvature="0" />
        <path
           style="opacity:0;fill:#1a1a1a;stroke-width:0.26458332"
           id="path100-5-4"
           d="m 63.462108,153.45487 c 0.726845,0.42609 1.469261,0.82315 2.219246,1.20674 0.698963,0.32909 1.413923,0.62588 2.131438,0.91267 0.476565,0.20651 0.943782,0.43583 1.400307,0.68377 0.329417,0.18146 0.698522,0.26794 1.06461,0.34028 0.526864,0.12371 1.053867,0.25114 1.590386,0.32644 0.460166,0.0583 0.923991,0.0725 1.387282,0.0773 0.341604,0.0101 0.684731,-0.026 1.022877,0.0282 0.420827,0.0753 0.847807,0.10052 1.27423,0.11765 0.433012,0.026 0.869191,-0.0154 1.29952,0.0414 0.389691,0.0659 0.783547,0.0986 1.17797,0.11739 0.388739,0.0147 0.777819,0.0119 1.166749,0.0144 0.509966,-5.3e-4 1.019921,0.002 1.529887,0.003 0.584697,0.002 1.1694,-8e-4 1.754095,-0.003 0.332824,-0.001 0.665646,-0.002 0.998471,-0.003 0,0 -1.915173,1.39145 -1.915173,1.39145 v 0 c -0.330171,-7.9e-4 -0.660342,-0.002 -0.99051,-0.003 -0.582623,-0.002 -1.165254,-0.004 -1.747877,-0.002 -0.513361,0.001 -1.026711,0.005 -1.540074,0.004 -0.392708,0.001 -0.785606,-0.003 -1.177872,-0.0229 -0.395131,-0.0276 -0.788014,-0.0742 -1.180645,-0.126 -0.429334,-0.024 -0.86006,-0.008 -1.289516,-0.0345 -0.431334,-0.0225 -0.860641,-0.0633 -1.288322,-0.12437 -0.336505,-0.0149 -0.673481,-0.002 -1.010184,-0.0127 -0.466336,-0.0135 -0.932688,-0.041 -1.394516,-0.11033 -0.539882,-0.0888 -1.071996,-0.21841 -1.607008,-0.33217 -0.382243,-0.0886 -0.762627,-0.18936 -1.101288,-0.39527 -0.451025,-0.23779 -0.902301,-0.4767 -1.37437,-0.67056 -0.717534,-0.29307 -1.428232,-0.60613 -2.12688,-0.94127 -0.752843,-0.38966 -1.495311,-0.79872 -2.25094,-1.18268 0,0 1.978107,-1.30152 1.978107,-1.30152 z"
           inkscape:connector-curvature="0" />
        <path
           style="opacity:0;fill:#1a1a1a;stroke-width:0.26458332"
           id="path102-2-5"
           d="m 62.541768,150.84037 c 1.007944,0.22569 2.015178,0.44917 3.012356,0.7188 1.047609,0.29481 2.10008,0.57647 3.155648,0.84204 0.841251,0.20311 1.704591,0.2861 2.553404,0.44551 1.083765,0.1878 2.179611,0.30265 3.275549,0.39135 0.938123,0.0395 1.872197,0.13071 2.807904,0.20443 0.578345,0.0435 1.158441,0.0508 1.738125,0.0554 0.547282,0.003 1.09456,-7e-5 1.641845,-2.4e-4 0.466969,-0.002 0.933937,-0.002 1.400908,-0.003 0.409721,-0.009 0.727956,0.0543 1.115139,-0.11143 0.07349,-0.0356 0.146971,-0.0713 0.220456,-0.10689 0,0 -1.849355,1.4616 -1.849355,1.4616 v 0 c -0.07969,0.03 -0.159377,0.0601 -0.239067,0.0901 -0.382598,0.0796 -0.769771,0.056 -1.159034,0.0557 -0.464637,-10e-4 -0.929272,-10e-4 -1.393912,-0.002 -0.54724,0.001 -1.094502,7.9e-4 -1.641729,-0.003 -0.581406,-0.006 -1.163045,-0.0212 -1.742379,-0.0744 -0.925081,-0.0865 -1.849432,-0.17589 -2.77753,-0.2253 -1.10563,-0.0946 -2.211506,-0.20398 -3.305143,-0.39607 -0.855448,-0.139 -1.717754,-0.24779 -2.558727,-0.46407 -1.050721,-0.27668 -2.102509,-0.55093 -3.146914,-0.85045 -1.005049,-0.26412 -2.019306,-0.49583 -3.043227,-0.67446 0,0 1.935683,-1.35384 1.935683,-1.35384 z"
           inkscape:connector-curvature="0" />
        <rect
           style="opacity:0;fill:#000000;stroke-width:0.26458332"
           id="rect104-8-3"
           width="18.767382"
           height="0.95375001"
           x="60.606083"
           y="152.19398" />
        <rect
           style="opacity:1;fill:#782121;stroke-width:0.26458332"
           id="rect222-3-0"
           width="22.64452"
           height="2.5425425"
           x="60.226475"
           y="138.48836" />
        <rect
           style="opacity:1;fill:#782121;stroke-width:0.26393598"
           id="rect222-9-3-31-5"
           width="22.533852"
           height="2.5425425"
           x="60.425114"
           y="146.91054" />
        <g
           id="g350-4-4">
          <rect
             y="155.1738"
             x="60.425114"
             height="2.5425425"
             width="22.616144"
             id="rect222-9-3-3-4-8"
             style="opacity:1;fill:#782121;stroke-width:0.26441747" />
        </g>
      </g>
      <g
         transform="matrix(1.2677227,-0.4475303,0.74529269,0.91635166,-46.438622,124.82698)"
         id="g380-2-9-9">
        <g
           id="g458-8-9-3"
           transform="matrix(1,0,0,1.0777969,0,-7.4884395)">
          <g
             id="g3339-1-3">
            <path
               style="fill:#a05a2c;stroke-width:0.28655928"
               inkscape:transform-center-x="-4.1774567"
               inkscape:transform-center-y="47.389246"
               d="M 85.631021,11.337699 81.428858,96.256278 58.949273,96.180584 50.737377,20.152672 68.800282,-0.0098653 Z"
               id="rect10-9-9-8-9-4-7"
               inkscape:connector-curvature="0"
               sodipodi:nodetypes="cccccc" />
          </g>
        </g>
        <g
           id="g3336-6-8">
          <path
             sodipodi:nodetypes="ccccc"
             inkscape:connector-curvature="0"
             id="rect343-8-4-8"
             d="m 68.908841,20.697679 h 0.575935 l 5.903351,75.267315 H 64.877284 Z"
             style="opacity:1;fill:#ac9d93;stroke-width:0.30853778" />
        </g>
      </g>
      <path
         inkscape:connector-curvature="0"
         id="rect10-1-0"
         d="M 75.232004,191.90621 143.89759,159.7999 157.08065,175.60939 88.415051,207.7157 Z"
         style="fill:#782121;stroke-width:0.18351893" />
      <ellipse
         style="opacity:1;fill:#782121;fill-opacity:1;fill-rule:evenodd;stroke:#000000;stroke-width:0.13850625;stroke-miterlimit:4;stroke-dasharray:none;stroke-opacity:1;paint-order:normal"
         id="path3358-9-6"
         cx="-110.7281"
         cy="262.31851"
         rx="15.965746"
         ry="15.850649"
         transform="matrix(0.67399553,-0.73873542,0.83928208,0.54369623,0,0)" />
      <path
         style="opacity:1;fill:#000000;fill-opacity:0;fill-rule:evenodd;stroke:#000000;stroke-width:0.06672627;stroke-miterlimit:4;stroke-dasharray:none;stroke-opacity:1;paint-order:normal"
         d="m 31.444961,93.077848 c 0,-0.01938 0.05843,-0.09623 0.129839,-0.170761 0.320535,-0.334546 1.690706,-2.169912 1.956112,-2.620242 0.328046,-0.556618 0.381362,-0.875853 0.181996,-1.08972 -0.186562,-0.200131 -0.492515,-0.168927 -0.946634,0.09655 -0.217208,0.126978 -0.4024,0.22298 -0.411539,0.213336 -0.04863,-0.05131 3.356416,-3.019889 3.407271,-2.970518 0.01838,0.01784 -0.03061,0.09878 -0.108852,0.179872 -0.136356,0.141314 -0.286501,0.445986 -0.286501,0.581364 0,0.0354 0.07468,0.136857 0.165965,0.225474 0.36179,0.351232 1.121789,0.166702 2.397367,-0.582085 0.349962,-0.205435 0.646191,-0.36391 0.658286,-0.352167 0.0121,0.01175 -0.536805,0.497939 -1.219778,1.080436 -1.562084,1.332276 -3.103423,2.731386 -4.688103,4.2555 -0.679486,0.653515 -1.235429,1.17235 -1.235429,1.152963 z"
         id="path3600"
         inkscape:connector-curvature="0" />
      <path
         style="opacity:1;fill:#000000;fill-opacity:0;fill-rule:evenodd;stroke:#000000;stroke-width:0.06672627;stroke-miterlimit:4;stroke-dasharray:none;stroke-opacity:1;paint-order:normal"
         d="m 32.323961,92.127491 c 0,-0.02083 0.277917,-0.416137 0.617594,-0.878454 0.965988,-1.314753 1.14536,-1.821094 0.751638,-2.121757 -0.183168,-0.139875 -0.366164,-0.147996 -0.726886,-0.03226 -0.150465,0.04828 -0.02198,-0.07244 1.293284,-1.215038 1.188631,-1.032595 1.135592,-0.996335 1.076706,-0.736057 -0.04088,0.18068 -0.01803,0.240957 0.155044,0.408975 0.166142,0.161294 0.258879,0.197062 0.510913,0.197062 0.335244,0 1.05085,-0.23656 1.515785,-0.501078 0.161361,-0.0918 0.307286,-0.153419 0.324278,-0.136923 0.01699,0.0165 -0.37334,0.379501 -0.867404,0.806676 -1.136999,0.983067 -2.447664,2.169627 -3.684318,3.335455 -0.531649,0.501201 -0.966634,0.89423 -0.966634,0.873397 z"
         id="path3602"
         inkscape:connector-curvature="0" />
      <path
         style="opacity:1;fill:#008000;fill-opacity:0;fill-rule:evenodd;stroke:#000000;stroke-width:0.06672627;stroke-miterlimit:4;stroke-dasharray:none;stroke-opacity:1;paint-order:normal"
         d="m 33.253635,90.917189 c 0.71002,-1.029921 0.834243,-1.431617 0.54096,-1.749276 -0.08367,-0.09063 -0.253934,-0.188974 -0.378356,-0.218546 l -0.226221,-0.05376 1.001018,-0.86531 1.001018,-0.865311 0.07934,0.183186 c 0.110479,0.255084 0.412025,0.467586 0.662205,0.46666 0.246841,-9.35e-4 0.776567,-0.132758 1.150725,-0.286408 0.145166,-0.05961 0.273667,-0.09894 0.285558,-0.0874 0.01189,0.01155 -0.53286,0.510187 -1.210555,1.108097 -0.677695,0.59791 -1.693212,1.519328 -2.256704,2.047595 -0.563492,0.528268 -1.039307,0.960488 -1.057368,0.960488 -0.01806,0 0.165711,-0.288004 0.408381,-0.640009 z"
         id="path3644"
         inkscape:connector-curvature="0" />
      <path
         style="opacity:1;fill:#008000;fill-opacity:0;fill-rule:evenodd;stroke:#000000;stroke-width:0.06672627;stroke-miterlimit:4;stroke-dasharray:none;stroke-opacity:1;paint-order:normal"
         d="m 33.338191,90.927321 c 0,-0.0215 0.0606,-0.121724 0.134675,-0.222711 0.22074,-0.300953 0.541368,-1.005587 0.541426,-1.189871 6.7e-5,-0.217646 -0.207594,-0.476391 -0.465608,-0.580144 l -0.199782,-0.08034 0.888464,-0.774123 0.888464,-0.774124 0.248195,0.271209 c 0.240666,0.262982 0.260213,0.270907 0.64443,0.261262 0.21793,-0.0055 0.530297,-0.05748 0.694149,-0.115574 0.163852,-0.0581 0.307871,-0.09596 0.320042,-0.08415 0.01217,0.01181 -0.455424,0.44783 -1.039101,0.96892 -0.583677,0.521089 -1.402984,1.264979 -1.820682,1.653086 -0.717159,0.666356 -0.834672,0.760198 -0.834672,0.666553 z"
         id="path3646"
         inkscape:connector-curvature="0" />
      <path
         style="opacity:1;fill:#008000;fill-opacity:0;fill-rule:evenodd;stroke:#000000;stroke-width:0.06672627;stroke-miterlimit:4;stroke-dasharray:none;stroke-opacity:1;paint-order:normal"
         d="m 33.693015,90.505252 c 0.293907,-0.663636 0.38599,-0.905545 0.387341,-1.017581 0.0021,-0.175959 -0.171499,-0.409238 -0.408893,-0.549392 l -0.191867,-0.113276 0.814778,-0.708802 0.814778,-0.708804 0.260096,0.246564 0.260095,0.246563 0.544808,-0.03625 c 0.299645,-0.01994 0.544809,-0.02937 0.544809,-0.02096 0,0.02511 -2.717493,2.48852 -2.900293,2.629116 -0.115349,0.08872 -0.154993,0.09907 -0.125652,0.03282 z"
         id="path3648"
         inkscape:connector-curvature="0" />
      <path
         style="opacity:1;fill:#008000;fill-opacity:0;fill-rule:evenodd;stroke:#000000;stroke-width:0.06672627;stroke-miterlimit:4;stroke-dasharray:none;stroke-opacity:1;paint-order:normal"
         d="m 33.879114,90.292931 c 0,-0.02404 0.06085,-0.193594 0.135231,-0.376782 0.188277,-0.463723 0.17245,-0.57009 -0.128266,-0.86203 l -0.263496,-0.255806 0.709281,-0.622637 c 0.390105,-0.34245 0.746401,-0.622637 0.791769,-0.622637 0.04537,0 0.171855,0.09118 0.281081,0.20261 0.190692,0.194553 0.217421,0.201693 0.6719,0.179491 l 0.473308,-0.02312 -0.57414,0.526161 c -0.509651,0.467059 -1.024601,0.933726 -1.84311,1.670291 -0.139457,0.125496 -0.253558,0.208501 -0.253558,0.184459 z"
         id="path3650"
         inkscape:connector-curvature="0" />
      <path
         style="opacity:1;fill:#008000;fill-opacity:0;fill-rule:evenodd;stroke:#000000;stroke-width:0.06672627;stroke-miterlimit:4;stroke-dasharray:none;stroke-opacity:1;paint-order:normal"
         d="m 34.015363,90.104057 c 5.62e-4,-0.01309 0.04487,-0.141959 0.09846,-0.286372 0.143337,-0.386254 0.128324,-0.465124 -0.144291,-0.75807 -0.210274,-0.225955 -0.233242,-0.278921 -0.152135,-0.350833 0.05254,-0.04658 0.362737,-0.312254 0.689324,-0.590378 l 0.593794,-0.505678 0.198642,0.137318 c 0.109253,0.07552 0.216571,0.16548 0.238485,0.199902 0.02191,0.03442 0.213002,0.06393 0.424641,0.06557 l 0.384798,0.003 -0.346972,0.30882 c -0.190834,0.16985 -0.715699,0.644458 -1.166365,1.054684 -0.450667,0.410225 -0.818936,0.735153 -0.818376,0.722062 z"
         id="path3652"
         inkscape:connector-curvature="0" />
      <path
         style="opacity:1;fill:#008000;fill-opacity:0;fill-rule:evenodd;stroke:#000000;stroke-width:0.06672627;stroke-miterlimit:4;stroke-dasharray:none;stroke-opacity:1;paint-order:normal"
         d="m 34.252612,89.569857 c 0.03402,-0.176028 0.0039,-0.260967 -0.165975,-0.46852 -0.114137,-0.139431 -0.207523,-0.27693 -0.207523,-0.30555 0,-0.02862 0.278469,-0.288487 0.618819,-0.577479 l 0.61882,-0.525442 0.233252,0.172719 c 0.128288,0.09499 0.356085,0.189072 0.506213,0.209064 l 0.272961,0.03635 -0.914627,0.836934 c -0.503045,0.460313 -0.934621,0.836935 -0.959058,0.836935 -0.02444,0 -0.02573,-0.09675 -0.0029,-0.215008 z"
         id="path3654"
         inkscape:connector-curvature="0" />
      <text
         xml:space="preserve"
         style="font-style:normal;font-variant:normal;font-weight:normal;font-stretch:normal;font-size:54.87391281px;line-height:1.25;font-family:'Californian FB';-inkscape-font-specification:'Californian FB';letter-spacing:0px;word-spacing:0px;fill:#2c5aa0;fill-opacity:1;stroke:none;stroke-width:0.28580162"
         x="8.2187834"
         y="206.98462"
         id="text3352"
         transform="scale(1.2473842,0.80167763)"><tspan
           sodipodi:role="line"
           x="8.2187834"
           y="206.98462"
           id="tspan3350"
           style="stroke-width:0.28580162"><tspan
             x="8.2187834"
             y="206.98462"
             style="fill:#2c5aa0;fill-opacity:1;stroke-width:0.28580162"
             id="tspan3348">3</tspan></tspan></text>
      <text
         xml:space="preserve"
         style="font-style:normal;font-variant:normal;font-weight:normal;font-stretch:normal;font-size:56.79918289px;line-height:1.25;font-family:'Californian FB';-inkscape-font-specification:'Californian FB';letter-spacing:0px;word-spacing:0px;fill:#162d50;fill-opacity:1;stroke:none;stroke-width:0.29582909"
         x="66.485855"
         y="134.86545"
         id="text3318"
         transform="scale(1.3389084,0.74687707)"><tspan
           sodipodi:role="line"
           x="66.485855"
           y="134.86545"
           id="tspan3316"
           style="stroke-width:0.29582909"><tspan
             x="66.485855"
             y="134.86545"
             style="fill:#162d50;fill-opacity:1;stroke-width:0.29582909"
             id="tspan3314">1</tspan></tspan></text>
      <text
         xml:space="preserve"
         style="font-style:normal;font-variant:normal;font-weight:normal;font-stretch:normal;font-size:44.15235901px;line-height:1.25;font-family:'Californian FB';-inkscape-font-specification:'Californian FB';letter-spacing:0px;word-spacing:0px;fill:#214478;fill-opacity:1;stroke:url(#linearGradient3346);stroke-width:0;stroke-miterlimit:4;stroke-dasharray:none"
         x="69.505219"
         y="314.7482"
         id="text3344"
         transform="scale(1.2946438,0.7724132)"><tspan
           sodipodi:role="line"
           x="69.505219"
           y="314.7482"
           id="tspan3342"
           style="stroke:url(#linearGradient3346);stroke-width:0"><tspan
             x="69.505219"
             y="314.7482"
             style="fill:#214478;fill-opacity:1;stroke:url(#linearGradient3346);stroke-width:0;stroke-miterlimit:4;stroke-dasharray:none"
             id="tspan3340">2</tspan></tspan></text>
      <g
         id="g3381-3-6-7"
         transform="matrix(0.62175486,0.11233259,-0.04781469,0.66095594,201.60839,107.88149)">
        <g
           transform="matrix(1.5462721,1.1360361,-0.91497932,1.3726664,-167.34067,-108.09446)"
           id="g362-0-3-8">
          <g
             id="g347-7-4-4">
            <rect
               style="fill:#003380;stroke-width:0.12963976"
               id="rect10-9-9-2-3-6"
               width="33.200317"
               height="22.678392"
               x="133.01794"
               y="-81.77739"
               transform="matrix(0.00810228,0.99996718,-0.99998921,0.00464563,0,0)"
               inkscape:transform-center-x="-2.2202458"
               inkscape:transform-center-y="18.248832" />
          </g>
          <path
             inkscape:connector-curvature="0"
             d="m 62.355555,148.16243 c 0.624678,0.25383 1.22021,0.57507 1.815121,0.892 0.563401,0.27288 1.140613,0.51663 1.711822,0.77297 0.442103,0.21026 0.855438,0.47535 1.246225,0.76915 0.351229,0.24896 0.68626,0.51921 1.035063,0.77104 0.34812,0.17315 0.739193,0.22788 1.113104,0.32246 0.524233,0.10442 1.051381,0.1961 1.57932,0.281 0.43557,0.0683 0.87686,0.0811 1.316857,0.0885 0.481124,0.006 0.962295,0.004 1.443443,0.003 0.4769,-0.002 0.953807,-0.002 1.43071,-10e-4 0.416663,-5.2e-4 0.833326,-0.002 1.24999,-0.003 0.333565,-2.7e-4 0.667136,-0.001 1.000701,1e-5 0.396971,-5.3e-4 0.793938,0.002 1.190906,0.002 0.455443,6e-5 0.910883,-9e-5 1.366327,5.3e-4 0.490863,0.0265 0.946978,-0.13087 1.353145,-0.39644 -0.61192,0.35195 -1.222833,0.70565 -1.835756,1.05585 -0.06416,0.0367 0.126545,-0.0763 0.189394,-0.1152 0.18769,-0.11606 0.363643,-0.25556 0.55345,-0.36709 0.728737,-0.42819 1.462545,-0.8477 2.193817,-1.27155 0.234106,-0.091 0.116538,-0.0522 0.352393,-0.11748 0,0 -1.868371,1.45339 -1.868371,1.45339 v 0 c -0.216072,0.0885 -0.10845,0.0388 -0.322437,0.15 0.614809,-0.35804 1.228034,-0.71881 1.844429,-1.07411 0.06215,-0.0358 -0.12241,0.075 -0.181547,0.11558 -0.339526,0.23315 -0.02426,0.0387 -0.369504,0.2599 -0.776695,0.49764 -1.696053,0.7677 -2.39069,1.3938 -0.450826,0.2182 -0.922285,0.33285 -1.426668,0.29984 -0.455972,5.3e-4 -0.911944,5.3e-4 -1.367917,5.3e-4 -0.398597,2.7e-4 -0.797192,0.002 -1.195789,0.002 -0.333563,0.001 -0.667131,2.7e-4 -1.000694,-1e-5 -0.414137,-7.9e-4 -0.82827,-0.002 -1.242407,-0.003 -0.476829,7.9e-4 -0.953656,0.002 -1.430485,0.001 -0.483529,10e-4 -0.967116,0.002 -1.450594,-0.005 -0.445993,-0.0136 -0.89263,-0.0381 -1.332368,-0.11898 -0.530262,-0.0936 -1.062969,-0.17559 -1.588325,-0.29423 -0.403704,-0.0912 -0.822934,-0.16342 -1.173877,-0.39689 -0.341085,-0.26137 -0.680789,-0.52462 -1.031896,-0.77263 -0.381093,-0.27889 -0.777523,-0.53797 -1.209437,-0.73221 -0.573913,-0.25775 -1.153184,-0.50619 -1.714434,-0.79 -0.588436,-0.3122 -1.17643,-0.63915 -1.811314,-0.84729 0,0 1.958293,-1.32869 1.958293,-1.32869 z"
             id="path98-9-6-6"
             style="opacity:0;fill:#002b11;stroke-width:0.26458332" />
          <path
             inkscape:connector-curvature="0"
             d="m 63.462108,153.45487 c 0.726845,0.42609 1.469261,0.82315 2.219246,1.20674 0.698963,0.32909 1.413923,0.62588 2.131438,0.91267 0.476565,0.20651 0.943782,0.43583 1.400307,0.68377 0.329417,0.18146 0.698522,0.26794 1.06461,0.34028 0.526864,0.12371 1.053867,0.25114 1.590386,0.32644 0.460166,0.0583 0.923991,0.0725 1.387282,0.0773 0.341604,0.0101 0.684731,-0.026 1.022877,0.0282 0.420827,0.0753 0.847807,0.10052 1.27423,0.11765 0.433012,0.026 0.869191,-0.0154 1.29952,0.0414 0.389691,0.0659 0.783547,0.0986 1.17797,0.11739 0.388739,0.0147 0.777819,0.0119 1.166749,0.0144 0.509966,-5.3e-4 1.019921,0.002 1.529887,0.003 0.584697,0.002 1.1694,-8e-4 1.754095,-0.003 0.332824,-0.001 0.665646,-0.002 0.998471,-0.003 0,0 -1.915173,1.39145 -1.915173,1.39145 v 0 c -0.330171,-7.9e-4 -0.660342,-0.002 -0.99051,-0.003 -0.582623,-0.002 -1.165254,-0.004 -1.747877,-0.002 -0.513361,0.001 -1.026711,0.005 -1.540074,0.004 -0.392708,0.001 -0.785606,-0.003 -1.177872,-0.0229 -0.395131,-0.0276 -0.788014,-0.0742 -1.180645,-0.126 -0.429334,-0.024 -0.86006,-0.008 -1.289516,-0.0345 -0.431334,-0.0225 -0.860641,-0.0633 -1.288322,-0.12437 -0.336505,-0.0149 -0.673481,-0.002 -1.010184,-0.0127 -0.466336,-0.0135 -0.932688,-0.041 -1.394516,-0.11033 -0.539882,-0.0888 -1.071996,-0.21841 -1.607008,-0.33217 -0.382243,-0.0886 -0.762627,-0.18936 -1.101288,-0.39527 -0.451025,-0.23779 -0.902301,-0.4767 -1.37437,-0.67056 -0.717534,-0.29307 -1.428232,-0.60613 -2.12688,-0.94127 -0.752843,-0.38966 -1.495311,-0.79872 -2.25094,-1.18268 0,0 1.978107,-1.30152 1.978107,-1.30152 z"
             id="path100-5-4-8"
             style="opacity:0;fill:#1a1a1a;stroke-width:0.26458332" />
          <path
             inkscape:connector-curvature="0"
             d="m 62.541768,150.84037 c 1.007944,0.22569 2.015178,0.44917 3.012356,0.7188 1.047609,0.29481 2.10008,0.57647 3.155648,0.84204 0.841251,0.20311 1.704591,0.2861 2.553404,0.44551 1.083765,0.1878 2.179611,0.30265 3.275549,0.39135 0.938123,0.0395 1.872197,0.13071 2.807904,0.20443 0.578345,0.0435 1.158441,0.0508 1.738125,0.0554 0.547282,0.003 1.09456,-7e-5 1.641845,-2.4e-4 0.466969,-0.002 0.933937,-0.002 1.400908,-0.003 0.409721,-0.009 0.727956,0.0543 1.115139,-0.11143 0.07349,-0.0356 0.146971,-0.0713 0.220456,-0.10689 0,0 -1.849355,1.4616 -1.849355,1.4616 v 0 c -0.07969,0.03 -0.159377,0.0601 -0.239067,0.0901 -0.382598,0.0796 -0.769771,0.056 -1.159034,0.0557 -0.464637,-10e-4 -0.929272,-10e-4 -1.393912,-0.002 -0.54724,0.001 -1.094502,7.9e-4 -1.641729,-0.003 -0.581406,-0.006 -1.163045,-0.0212 -1.742379,-0.0744 -0.925081,-0.0865 -1.849432,-0.17589 -2.77753,-0.2253 -1.10563,-0.0946 -2.211506,-0.20398 -3.305143,-0.39607 -0.855448,-0.139 -1.717754,-0.24779 -2.558727,-0.46407 -1.050721,-0.27668 -2.102509,-0.55093 -3.146914,-0.85045 -1.005049,-0.26412 -2.019306,-0.49583 -3.043227,-0.67446 0,0 1.935683,-1.35384 1.935683,-1.35384 z"
             id="path102-2-5-6"
             style="opacity:0;fill:#1a1a1a;stroke-width:0.26458332" />
          <rect
             y="152.19398"
             x="60.606083"
             height="0.95375001"
             width="18.767382"
             id="rect104-8-3-3"
             style="opacity:0;fill:#000000;stroke-width:0.26458332" />
          <rect
             y="138.48836"
             x="60.226475"
             height="2.5425425"
             width="22.64452"
             id="rect222-3-0-0"
             style="opacity:1;fill:#782121;stroke-width:0.26458332" />
          <rect
             y="146.91054"
             x="60.425114"
             height="2.5425425"
             width="22.533852"
             id="rect222-9-3-31-5-1"
             style="opacity:1;fill:#782121;stroke-width:0.26393598" />
          <g
             id="g350-4-4-2">
            <rect
               style="opacity:1;fill:#782121;stroke-width:0.26441747"
               id="rect222-9-3-3-4-8-8"
               width="22.616144"
               height="2.5425425"
               x="60.425114"
               y="155.1738" />
          </g>
        </g>
        <g
           id="g380-2-9-9-3"
           transform="matrix(1.3751923,1.3729216,-1.0101804,1.6031123,-164.98112,-110.31607)">
          <g
             transform="matrix(1,0,0,1.0777969,0,-7.4884395)"
             id="g458-8-9-3-6">
            <g
               id="g3339-1-3-3">
              <path
                 sodipodi:nodetypes="cccccc"
                 inkscape:connector-curvature="0"
                 id="rect10-9-9-8-9-4-7-1"
                 d="M 85.631021,11.337699 81.428858,96.256278 58.949273,96.180584 50.737377,20.152672 68.800282,-0.0098653 Z"
                 inkscape:transform-center-y="47.389246"
                 inkscape:transform-center-x="-4.1774567"
                 style="fill:#a05a2c;stroke-width:0.28655928" />
            </g>
          </g>
          <g
             id="g3336-6-8-1">
            <path
               style="opacity:1;fill:#ac9d93;stroke-width:0.30853778"
               d="m 68.908841,20.697679 h 0.575935 l 5.903351,75.267315 H 64.877284 Z"
               id="rect343-8-4-8-6"
               inkscape:connector-curvature="0"
               sodipodi:nodetypes="ccccc" />
          </g>
        </g>
        <path
           style="fill:#782121;stroke-width:0.28442338"
           d="m -202.65828,95.707447 86.61564,69.055113 -17.25276,28.08704 -86.61565,-69.05512 z"
           id="rect10-1-0-5"
           inkscape:connector-curvature="0" />
        <ellipse
           transform="rotate(14.612842)"
           ry="24.174377"
           rx="24.804337"
           cy="257.90976"
           cx="-154.74059"
           id="path3358-9-6-5"
           style="opacity:1;fill:#782121;fill-opacity:1;fill-rule:evenodd;stroke:#000000;stroke-width:0.2132027;stroke-miterlimit:4;stroke-dasharray:none;stroke-opacity:1;paint-order:normal" />
      </g>
      <text
         xml:space="preserve"
         style="font-style:normal;font-variant:normal;font-weight:normal;font-stretch:normal;font-size:55.88928986px;line-height:1.25;font-family:'Californian FB';-inkscape-font-specification:'Californian FB';letter-spacing:0px;word-spacing:0px;fill:#3771c8;fill-opacity:1;stroke:none;stroke-width:0.29109004"
         x="144.75346"
         y="187.4361"
         id="text3366"
         transform="scale(1.1218693,0.89136944)"><tspan
           sodipodi:role="line"
           x="144.75346"
           y="187.4361"
           id="tspan3364"
           style="stroke-width:0.29109004"><tspan
             x="144.75346"
             y="187.4361"
             id="tspan3362"
             style="stroke-width:0.29109004">4</tspan></tspan></text>
    </g>
  </g>
</svg>
